<mxfile host="app.diagrams.net" modified="2024-06-21T10:02:26.477Z" agent="Mozilla/5.0 (Windows NT 10.0; Win64; x64) AppleWebKit/537.36 (KHTML, like Gecko) Chrome/126.0.0.0 Safari/537.36" version="24.6.0" etag="33Xw6msLjxE5iBtmOpjw" type="github">
  <diagram name="Page-1" id="5SNKsLbysYWergcB4wmt">
    <mxGraphModel>
      <root>
        <mxCell id="0" />
        <mxCell id="1" parent="0" />
      </root>
    </mxGraphModel>
  </diagram>
</mxfile>
